<svg width="32" height="28" viewBox="0 0 32 28" fill="none" xmlns="http://www.w3.org/2000/svg">
<path fill-rule="evenodd" clip-rule="evenodd" d="M5.10216 13.7263C5.08898 13.5357 5.26033 11.9946 5.309 11.6621C5.31711 11.6164 5.34347 11.5526 5.29581 11.5242C5.25222 11.4988 5.20558 11.5495 5.16401 11.5718C5.06465 11.6235 5.01193 11.7117 4.97644 11.8151C4.87404 12.1274 4.26368 13.851 4.22211 13.8733C4.21704 13.997 4.10044 13.9859 4.02237 14.0234C3.80134 14.0244 3.72631 14.1451 3.68272 14.356C3.4039 15.7176 3.10886 17.0772 2.81787 18.4369C2.80773 18.4845 2.79151 18.5301 2.77529 18.5889C2.63233 18.4744 2.48937 18.378 2.31194 18.3547C1.93579 18.304 1.59715 18.4886 1.45723 18.8414C1.41465 18.9499 1.37105 18.9661 1.26763 18.9448C0.821523 18.8475 0.59137 18.4967 0.688703 18.0425C0.876273 17.1624 1.06384 16.2834 1.25445 15.4023C1.35179 14.9562 1.69347 14.7392 2.14059 14.8335C2.43158 14.8964 2.72256 14.9653 3.01456 15.0201C3.22951 15.0606 3.19402 15.0971 3.2437 14.8619C3.29643 14.6135 3.34509 14.3631 3.40998 14.1167C3.43837 14.0001 3.41302 13.9271 3.30859 13.8754C3.17273 13.8044 3.13623 13.6787 3.12001 13.5398C3.12001 13.5175 3.12305 13.4992 3.12812 13.482C3.12305 13.4394 3.6594 11.6529 3.75977 11.3031C3.8713 10.9219 4.09233 10.6482 4.44719 10.4687C4.92372 10.2294 5.39315 9.97291 5.86359 9.72451C6.05015 9.62515 6.24279 9.53593 6.45469 9.50956C7.08736 9.43251 7.62269 9.94554 7.572 10.5965C7.54665 10.9361 7.48784 11.2737 7.44019 11.6124L7.12791 13.8054C7.09851 14.0163 7.17455 14.1806 7.33272 14.3164C7.63384 14.576 7.92888 14.8436 8.23711 15.0951C8.55648 15.3567 8.70552 15.6852 8.72986 16.0958C8.78359 16.988 8.85862 17.8802 8.92452 18.7725C8.94987 19.1304 8.76332 19.4284 8.43988 19.5511C8.13572 19.6697 7.791 19.5765 7.58315 19.321C7.48582 19.2023 7.42904 19.0675 7.41687 18.9134C7.36719 18.2817 7.31954 17.6491 7.2729 17.0184C7.25566 16.8075 7.2364 16.5966 7.23133 16.3847C7.22829 16.2681 7.18469 16.1911 7.0975 16.1171C6.63719 15.7288 6.185 15.3293 5.72266 14.943C5.4337 14.7027 5.20558 14.4279 5.1052 14.0589C5.1052 14.0589 5.10723 13.8085 5.10216 13.7243M7.10459 9.15166C7.77376 9.15166 8.31315 8.6143 8.31416 7.94615C8.31619 7.26786 7.7768 6.72543 7.10155 6.72847C6.43036 6.72948 5.89097 7.26583 5.88995 7.93195C5.88691 8.60923 6.4263 9.15166 7.10459 9.15166Z" fill="#FB792B"/>
<path fill-rule="evenodd" clip-rule="evenodd" d="M2.17934 18.6721C1.92688 18.6761 1.71802 18.886 1.71802 19.1354C1.71701 19.3929 1.93499 19.6048 2.19759 19.6018C2.45208 19.5998 2.65181 19.396 2.65181 19.1374C2.65181 18.8708 2.44397 18.667 2.17934 18.6721ZM7.63812 12.4468C7.71112 12.0047 7.74965 11.6752 7.82265 11.2697L7.9068 11.3183L9.52902 12.3778C9.71761 12.5025 9.9143 12.6191 10.0907 12.756C10.3199 12.9345 10.2834 13.2995 10.0299 13.5215C9.81088 13.7141 9.53308 13.7506 9.31509 13.6087C8.73413 13.2336 8.2789 13.0277 7.69895 12.6506C7.59452 12.5826 7.61581 12.5887 7.63812 12.4468ZM6.1984 15.7764C5.84049 15.4601 5.45724 15.1701 5.11252 14.8061L5.06284 14.942L4.16859 17.7231C4.06416 18.0495 3.94756 18.3719 3.86645 18.7004C3.76202 19.1283 4.07835 19.5491 4.51534 19.5957C4.89048 19.6363 5.20884 19.4335 5.32949 19.0594C5.65292 18.0688 5.97129 17.0762 6.29167 16.0846C6.34947 15.9072 6.34642 15.9082 6.1984 15.7764Z" fill="#FB792B"/>
<path fill-rule="evenodd" clip-rule="evenodd" d="M26.4376 20.8385H15.4065C13.6454 20.8385 12.2189 19.412 12.2189 17.6498V4.7187C12.2189 4.00898 12.7958 3.43106 13.5065 3.43106H28.3377C29.0484 3.43106 29.6253 4.00898 29.6253 4.7187V17.6498C29.6253 19.412 28.1978 20.8385 26.4376 20.8385Z" stroke="#333333" stroke-width="1.01389" stroke-linecap="round"/>
<path d="M23.6453 1.0697H17.8875" stroke="#333333" stroke-width="1.01389" stroke-linecap="round"/>
<path fill-rule="evenodd" clip-rule="evenodd" d="M16.8311 16.4605C16.8311 17.1033 16.3109 17.6235 15.6681 17.6235C15.0264 17.6235 14.5062 17.1033 14.5062 16.4605C14.5062 15.8187 15.0264 15.2986 15.6681 15.2986C16.3109 15.2986 16.8311 15.8187 16.8311 16.4605ZM27.2812 16.4605C27.2812 17.1033 26.7611 17.6235 26.1183 17.6235C25.4755 17.6235 24.9554 17.1033 24.9554 16.4605C24.9554 15.8187 25.4755 15.2986 26.1183 15.2986C26.7611 15.2986 27.2812 15.8187 27.2812 16.4605Z" fill="#FB792B"/>
<path d="M14.0632 20.8385L10.8684 26.8194M27.4769 20.8385L30.6727 26.8194M13.4498 26.0438H28.0883M16.3383 23.4412H25.2007" stroke="#333333" stroke-width="1.01389" stroke-linecap="round"/>
<path d="M20.4496 1.0697L21.6014 2.32591V3.43206" stroke="#333333" stroke-width="1.01389" stroke-linecap="round" stroke-linejoin="round"/>
<path fill-rule="evenodd" clip-rule="evenodd" d="M20.0258 12.5297H15.5271C15.1013 12.5297 14.7566 12.1839 14.7566 11.7571V6.99588C14.7566 6.57005 15.1013 6.2233 15.5271 6.2233H20.0258C20.4516 6.2233 20.7984 6.57005 20.7984 6.99588V11.7571C20.7984 12.1829 20.4516 12.5297 20.0258 12.5297Z" stroke="#333333" stroke-width="1.01389" stroke-linecap="round"/>
<path fill-rule="evenodd" clip-rule="evenodd" d="M26.2957 12.5297H15.5282C15.1013 12.5297 14.7566 12.184 14.7566 11.7571V6.99588C14.7566 6.57005 15.1013 6.2233 15.5271 6.2233H26.2957C26.7235 6.2233 27.0682 6.57005 27.0682 6.99588V11.7571C27.0682 12.1829 26.7235 12.5297 26.2957 12.5297Z" stroke="#333333" stroke-width="1.01389" stroke-linecap="round"/>
</svg>
